<svg  width="24" height="24" viewBox="0 0 24 24" fill="none" xmlns="http://www.w3.org/2000/svg">
<path d="M22 12C22 13.4534 20.8218 14.6316 19.3684 14.6316C17.915 14.6316 16.7368 13.4534 16.7368 12C16.7368 10.5466 17.915 9.36841 19.3684 9.36841C20.8218 9.36841 22 10.5466 22 12Z" stroke="#070A26" stroke-width="1.57895" stroke-linecap="square"/>
<path d="M13.5789 3.57895C13.5789 4.45098 12.872 5.15789 12 5.15789C11.128 5.15789 10.4211 4.45098 10.4211 3.57895C10.4211 2.70692 11.128 2 12 2C12.872 2 13.5789 2.70692 13.5789 3.57895Z" stroke="#070A26" stroke-width="1.57895" stroke-linecap="square"/>
<path d="M12.5263 11.4737C12.5263 12.3457 11.8194 13.0527 10.9474 13.0527C10.0754 13.0527 9.36842 12.3457 9.36842 11.4737C9.36842 10.6017 10.0754 9.89478 10.9474 9.89478C11.8194 9.89478 12.5263 10.6017 12.5263 11.4737Z" stroke="#070A26" stroke-width="1.57895" stroke-linecap="square"/>
<path d="M6.21053 7.26298C6.21053 8.42568 5.26797 9.36824 4.10526 9.36824C2.94256 9.36824 2 8.42568 2 7.26298C2 6.10027 2.94256 5.15771 4.10526 5.15771C5.26797 5.15771 6.21053 6.10027 6.21053 7.26298Z" stroke="#070A26" stroke-width="1.57895" stroke-linecap="square"/>
<path d="M10.4211 19.8946C10.4211 21.0573 9.47849 21.9998 8.31579 21.9998C7.15308 21.9998 6.21053 21.0573 6.21053 19.8946C6.21053 18.7318 7.15308 17.7893 8.31579 17.7893C9.47849 17.7893 10.4211 18.7318 10.4211 19.8946Z" stroke="#070A26" stroke-width="1.57895" stroke-linecap="square"/>
<path d="M14.1954 4.13836L13.7022 3.52188L12.4693 4.50825L12.9625 5.12472L13.5789 4.63154L14.1954 4.13836ZM17.173 10.3879L17.6662 11.0044L18.8991 10.018L18.4059 9.40152L17.7895 9.8947L17.173 10.3879ZM15.1053 16.3158C15.4541 16.0541 15.5248 15.5593 15.2632 15.2105C15.0015 14.8617 14.5067 14.791 14.1579 15.0526L14.6316 15.6842L15.1053 16.3158ZM9.94737 18.2105L9.31579 18.6842L10.2632 19.9473L10.8947 19.4736L10.421 18.8421L9.94737 18.2105ZM7.05026 18.0666L7.32747 18.8058L8.80588 18.2514L8.52868 17.5122L7.78947 17.7894L7.05026 18.0666ZM5.37078 9.09118L5.09358 8.35197L3.61517 8.90638L3.89237 9.64559L4.63158 9.36838L5.37078 9.09118ZM5.65247 5.67092L4.95046 6.03211L5.67285 7.43612L6.37486 7.07492L6.01366 6.37292L5.65247 5.67092ZM10.7822 4.80723L11.4842 4.44603L10.7619 3.04203L10.0599 3.40322L10.421 4.10522L10.7822 4.80723ZM12.5939 10.6871L11.8074 10.6195L11.6721 12.1926L12.4587 12.2602L12.5263 11.4736L12.5939 10.6871ZM16.6745 12.6226L17.4611 12.6903L17.5963 11.1171L16.8097 11.0495L16.7421 11.8361L16.6745 12.6226ZM13.5789 4.63154L12.9625 5.12472L17.173 10.3879L17.7895 9.8947L18.4059 9.40152L14.1954 4.13836L13.5789 4.63154ZM14.6316 15.6842L14.1579 15.0526L9.94737 18.2105L10.421 18.8421L10.8947 19.4736L15.1053 16.3158L14.6316 15.6842ZM7.78947 17.7894L8.52868 17.5122L5.37078 9.09118L4.63158 9.36838L3.89237 9.64559L7.05026 18.0666L7.78947 17.7894ZM6.01366 6.37292L6.37486 7.07492L10.7822 4.80723L10.421 4.10522L10.0599 3.40322L5.65247 5.67092L6.01366 6.37292ZM12.5263 11.4736L12.4587 12.2602L16.6745 12.6226L16.7421 11.8361L16.8097 11.0495L12.5939 10.6871L12.5263 11.4736Z" fill="#070A26"/>
<path d="M12 5.68408L10.9474 9.89461" stroke="#070A26" stroke-width="1.57895" stroke-linecap="square"/>
</svg>