<svg  width="24" height="24" viewBox="0 0 24 24" fill="none" xmlns="http://www.w3.org/2000/svg">
<path d="M11.2796 15.2151L10.8506 15.8302L10.8506 15.8302L11.2796 15.2151ZM15.9712 14.0345L16.1714 13.3117L16.1714 13.3117L15.9712 14.0345ZM11.9717 15.1102L12.5197 15.6222V15.6222L11.9717 15.1102ZM18.4964 18.3781L17.7849 18.1409L17.7849 18.1409L18.4964 18.3781ZM10.0437 8.13041L10.7665 7.93022L10.7665 7.93022L10.0437 8.13041ZM5.70014 5.60517L5.93727 6.3167L5.93729 6.31669L5.70014 5.60517ZM9.43815 9.04213C9.46135 9.45569 9.81542 9.77214 10.229 9.74894C10.6425 9.72575 10.959 9.37168 10.9358 8.95812L9.43815 9.04213ZM4.40858 13.4025C4.63083 13.7521 5.09436 13.8553 5.4439 13.633C5.79343 13.4108 5.89662 12.9472 5.67437 12.5977L4.40858 13.4025ZM11.7087 14.6C11.2844 14.304 10.8807 13.9672 10.5028 13.5893L9.4421 14.6499C9.88277 15.0906 10.3542 15.4841 10.8506 15.8302L11.7087 14.6ZM16.1714 13.3117C14.4159 12.8255 12.5714 13.3699 11.4238 14.5981L12.5197 15.6222C13.2803 14.8083 14.5458 14.4179 15.771 14.7573L16.1714 13.3117ZM19.2079 18.6152C19.9746 16.315 18.541 13.968 16.1714 13.3117L15.771 14.7573C17.4189 15.2137 18.2465 16.756 17.7849 18.1409L19.2079 18.6152ZM10.7665 7.93022C10.1102 5.56058 7.76318 4.127 5.46299 4.89365L5.93729 6.31669C7.32218 5.85511 8.86452 6.68273 9.32095 8.33061L10.7665 7.93022ZM7.18719 16.9048C8.24931 17.9669 10.5746 19.8913 12.9137 20.8629C14.077 21.3461 15.3548 21.6409 16.5174 21.3604C17.7498 21.063 18.6926 20.1614 19.2079 18.6152L17.7849 18.1409C17.4005 19.2944 16.8024 19.7486 16.1656 19.9022C15.459 20.0727 14.5391 19.9138 13.4891 19.4776C11.4013 18.6104 9.23696 16.8333 8.24785 15.8442L7.18719 16.9048ZM10.8506 15.8302C11.4403 16.2416 12.1435 16.0248 12.5197 15.6222L11.4238 14.5981C11.4414 14.5792 11.4693 14.5603 11.5135 14.5527C11.5631 14.5443 11.639 14.5513 11.7087 14.6L10.8506 15.8302ZM10.9358 8.95812C10.9166 8.61629 10.8611 8.27171 10.7665 7.93022L9.32095 8.3306C9.38651 8.5673 9.42489 8.80576 9.43815 9.04213L10.9358 8.95812ZM5.463 4.89365C4.45989 5.22796 3.71245 5.74683 3.23244 6.44215C2.75233 7.13761 2.59104 7.9353 2.62521 8.73384C2.69183 10.2905 3.50555 11.9823 4.40858 13.4025L5.67437 12.5977C4.80586 11.2318 4.17298 9.81804 4.12384 8.66971C4.10013 8.11574 4.21367 7.66108 4.46686 7.29433C4.72013 6.92745 5.16444 6.57427 5.93727 6.3167L5.463 4.89365Z" fill="#070A26"/>
<path d="M21 3L3 21" stroke="currentColor" stroke-width="1.5" stroke-linecap="round" stroke-linejoin="round"/>
</svg>